<svg width="80" height="80" viewBox="0 0 80 80" fill="none" xmlns="http://www.w3.org/2000/svg">
<path opacity="0.3" d="M80 40C80 62.0914 62.0914 80 40 80C17.9086 80 0 62.0914 0 40C0 17.9086 17.9086 0 40 0C62.0914 0 80 17.9086 80 40ZM10.9071 40C10.9071 56.0675 23.9325 69.0929 40 69.0929C56.0675 69.0929 69.0929 56.0675 69.0929 40C69.0929 23.9325 56.0675 10.9071 40 10.9071C23.9325 10.9071 10.9071 23.9325 10.9071 40Z" fill="#2F2E30"/>
<circle cx="40" cy="40" r="29" fill="black"/>
<path d="M40 57.2728C49.5395 57.2728 57.2727 49.5395 57.2727 40C57.2727 30.4606 49.5395 22.7273 40 22.7273C30.4605 22.7273 22.7273 30.4606 22.7273 40C22.7273 49.5395 30.4605 57.2728 40 57.2728Z" stroke="white" stroke-width="2" stroke-linecap="round" stroke-linejoin="round"/>
<path d="M45.0909 34.547C44.7615 33.9758 44.283 33.505 43.7065 33.1848C43.13 32.8646 42.4773 32.7072 41.8182 32.7294H38.1818C37.2174 32.7294 36.2925 33.1124 35.6105 33.7941C34.9286 34.4759 34.5455 35.4005 34.5455 36.3647C34.5455 37.3288 34.9286 38.2535 35.6105 38.9353C36.2925 39.617 37.2174 40 38.1818 40H41.8182C42.7826 40 43.7075 40.383 44.3895 41.0648C45.0714 41.7465 45.4545 42.6712 45.4545 43.6354C45.4545 44.5995 45.0714 45.5242 44.3895 46.2059C43.7075 46.8877 42.7826 47.2707 41.8182 47.2707H38.1818C37.5227 47.2929 36.87 47.1354 36.2935 46.8153C35.717 46.4951 35.2385 46.0242 34.9091 45.453" stroke="white" stroke-width="2.75" stroke-linecap="round" stroke-linejoin="round"/>
<path d="M40 28.1818V32.1212M40 47.8787V51.8181" stroke="white" stroke-width="2.75" stroke-linecap="round" stroke-linejoin="round"/>
</svg>
