<svg width="80" height="80" viewBox="0 0 80 80" fill="none" xmlns="http://www.w3.org/2000/svg">
<path opacity="0.3" d="M80 40C80 62.0914 62.0914 80 40 80C17.9086 80 0 62.0914 0 40C0 17.9086 17.9086 0 40 0C62.0914 0 80 17.9086 80 40ZM10.9071 40C10.9071 56.0675 23.9325 69.0929 40 69.0929C56.0675 69.0929 69.0929 56.0675 69.0929 40C69.0929 23.9325 56.0675 10.9071 40 10.9071C23.9325 10.9071 10.9071 23.9325 10.9071 40Z" fill="#2F2E30"/>
<circle cx="40" cy="40" r="29" fill="black"/>
<path d="M31.6667 31.6667V28.3334C31.6667 27.3682 31.9461 26.4236 32.4711 25.6137C32.9961 24.8038 33.7444 24.1632 34.6255 23.7691C35.5066 23.3751 36.4829 23.2445 37.4366 23.3931C38.3903 23.5418 39.2806 23.9633 40 24.6067C40.7194 23.9633 41.6097 23.5418 42.5634 23.3931C43.5171 23.2445 44.4934 23.3751 45.3745 23.7691C46.2556 24.1632 47.0039 24.8038 47.5289 25.6137C48.0539 26.4236 48.3333 27.3682 48.3333 28.3334V31.6667H50.8333C51.4964 31.6667 52.1323 31.9301 52.6011 32.399C53.0699 32.8678 53.3333 33.5037 53.3333 34.1667V50.8417C53.3333 52.3866 52.7196 53.8682 51.6272 54.9606C50.5348 56.053 49.0532 56.6667 47.5083 56.6667H33.3333C31.5652 56.6667 29.8695 55.9643 28.6193 54.7141C27.3691 53.4639 26.6667 51.7682 26.6667 50.0001V34.1667C26.6667 33.5037 26.9301 32.8678 27.3989 32.399C27.8677 31.9301 28.5036 31.6667 29.1667 31.6667H31.6667ZM42.725 54.1667C42.0451 53.1914 41.6815 52.0306 41.6833 50.8417V34.1667H29.1667V50.0001C29.1667 50.5472 29.2744 51.089 29.4838 51.5946C29.6932 52.1001 30.0001 52.5594 30.3871 52.9463C30.774 53.3332 31.2333 53.6402 31.7388 53.8496C32.2443 54.0589 32.7862 54.1667 33.3333 54.1667H42.725ZM39.1667 31.6667V28.3334C39.1667 27.6703 38.9033 27.0345 38.4344 26.5656C37.9656 26.0968 37.3297 25.8334 36.6667 25.8334C36.0036 25.8334 35.3677 26.0968 34.8989 26.5656C34.4301 27.0345 34.1667 27.6703 34.1667 28.3334V31.6667H39.1667ZM41.6667 31.6667H45.8333V28.3334C45.8334 27.8188 45.6746 27.3167 45.3787 26.8957C45.0828 26.4746 44.6642 26.1552 44.18 25.9809C43.6958 25.8066 43.1696 25.786 42.6733 25.9219C42.1769 26.0577 41.7346 26.3435 41.4067 26.7401C41.575 27.2401 41.6667 27.7767 41.6667 28.3334V31.6667ZM44.1833 50.8417C44.1833 51.7236 44.5337 52.5693 45.1572 53.1929C45.7808 53.8164 46.6265 54.1667 47.5083 54.1667C48.3902 54.1667 49.2359 53.8164 49.8595 53.1929C50.483 52.5693 50.8333 51.7236 50.8333 50.8417V34.1667H44.1833V50.8417Z" fill="white"/>
</svg>
